<svg width="16" height="24" viewBox="0 0 16 24" fill="none" xmlns="http://www.w3.org/2000/svg">
<path fill-rule="evenodd" clip-rule="evenodd" d="M6 0C6 0 12.6667 3.49091 12.6667 6.4C12.6667 9.30909 12.1333 11.6364 13.2 11.6364C14.2667 11.6364 14.2667 9.89091 14.2667 9.89091C14.2667 9.89091 16 12.3636 16 15.2727C16 18.1818 13.3563 19.8521 13.2 20.3636C13.0437 20.8752 14.8 19.7818 14.8 19.7818C14.8 19.7818 13.2 23.2727 7.86667 23.2727C2.53333 23.2727 0 18.9091 0 18.9091C0 18.9091 1.46667 20.3636 1.46667 19.2C1.46667 18.0364 0 17.6 0 15.2727C0 12.9455 1.46667 9.30909 1.46667 9.30909C1.46667 9.30909 1.46667 13.3818 2.53333 12.8C3.6 12.2182 2.53333 9.89091 3.06667 8.14545C3.6 6.4 5.2 5.23636 5.2 5.23636C5.2 5.23636 6.26667 6.98182 6.8 4.65455C7.33333 2.32727 6 0 6 0Z" fill="url(#paint0_linear)"/>
<path opacity="0.86656" d="M7.31999 23.2728C2.65333 23.1208 1.33333 14.909 1.33333 14.909C1.33333 14.909 5.33333 19.1635 4.66666 15.5168C3.99999 11.8701 8.39999 10.0467 8.39999 8.83116C8.39999 7.61559 6.79999 6.40002 6.79999 6.40002C6.79999 6.40002 10 8.22337 10 10.0467C10 11.8701 10 16.1246 11.0667 14.909C12.1333 13.6934 11.6 12.4779 11.6 12.4779C11.6 12.4779 13.7333 13.6934 13.2 15.5168C12.6667 17.3401 9.99999 19.1635 10.5333 19.7713C11.0667 20.379 12.1333 19.7713 12.1333 19.7713C12.1333 19.7713 11.9867 23.4247 7.31999 23.2728Z" fill="url(#paint1_linear)"/>
<path opacity="0.516881" d="M10.6667 16.7273C10.6667 16.7273 10.6667 18.1818 10 18.9091C9.33334 19.6364 10.6667 23.2727 7.33333 23.2727C4 23.2727 4.66667 18.9091 4.66667 18.9091C4.66667 18.9091 5.33333 20.3636 6 19.6364C6.66667 18.9091 5.57661 16.9663 6 15.2727C6.42339 13.5792 8 11.6364 8 11.6364C8 11.6364 8 16 8.66667 17.4545C9.33333 18.9091 10.6667 16.7273 10.6667 16.7273Z" fill="url(#paint2_radial)"/>
<defs>
<linearGradient id="paint0_linear" x1="0" y1="0" x2="0" y2="23.2727" gradientUnits="userSpaceOnUse">
<stop stop-color="#FFAC25"/>
<stop offset="1" stop-color="#EC0D02"/>
</linearGradient>
<linearGradient id="paint1_linear" x1="1.33333" y1="6.40002" x2="1.33333" y2="23.2788" gradientUnits="userSpaceOnUse">
<stop stop-color="#FFA247"/>
<stop offset="1" stop-color="#FFA900"/>
</linearGradient>
<radialGradient id="paint2_radial" cx="0" cy="0" r="1" gradientUnits="userSpaceOnUse" gradientTransform="translate(7.47575 19.7773) rotate(87.749) scale(5.75435 3.03428)">
<stop stop-color="#FEFEDF"/>
<stop offset="1" stop-color="#FFD44C"/>
</radialGradient>
</defs>
</svg>
