<svg width="99" height="16" viewBox="0 0 99 16" fill="none" xmlns="http://www.w3.org/2000/svg">
<path opacity="0.15" fill-rule="evenodd" clip-rule="evenodd" d="M20.5375 12.2602C21.263 11.6425 21.9553 10.7967 22.4168 9.91885C21.7904 9.72364 21.1639 9.561 20.5375 9.561V12.2602ZM20.0759 12.2277C19.3179 11.6425 18.6256 10.7967 18.164 9.91885C18.7905 9.69107 19.4167 9.561 20.0759 9.561V12.2277ZM20.5375 0.260129C21.263 0.845534 21.9553 1.69107 22.4168 2.56918C21.7904 2.79673 21.1639 2.9268 20.5375 2.9268V0.260129ZM20.0759 0.260129C19.3179 0.845534 18.6256 1.69107 18.164 2.56918C18.7905 2.76439 19.4167 2.9268 20.0759 2.9268V0.260129ZM20.5375 9.10566V6.47157H23.3398C23.3398 7.51231 23.0761 8.55283 22.6145 9.49586C21.988 9.2683 21.23 9.10566 20.5375 9.10566ZM26.6364 6.47157H23.8013C23.7683 7.60981 23.5374 8.65032 23.0761 9.69107C23.6693 9.9512 24.2297 10.309 24.757 10.7318C25.8781 9.59335 26.5703 8.06515 26.6364 6.47157ZM24.3945 11.0245C23.9662 10.6667 23.4056 10.309 22.8452 10.0813C22.3508 11.0245 21.7244 11.8049 20.9333 12.488C22.2189 12.3254 23.4056 11.87 24.3945 11.0245ZM20.0759 9.10566V6.47157H17.2411C17.2741 7.51231 17.5048 8.5854 17.9662 9.49586C18.6256 9.2683 19.3509 9.10566 20.0759 9.10566ZM13.9445 6.47157H16.7795C16.8126 7.60981 17.0763 8.61798 17.5378 9.69107C16.9114 9.9512 16.351 10.309 15.8234 10.7318C14.7026 9.59335 14.0103 8.09772 13.9445 6.47157ZM16.1861 11.0245C16.6477 10.6667 17.1751 10.2765 17.7355 10.0813C18.2301 11.0245 18.8563 11.8049 19.6476 12.488C18.3619 12.3254 17.1751 11.87 16.1861 11.0245ZM20.5375 3.38214V6.01623H23.3398C23.3398 4.94314 23.0761 3.93497 22.6145 2.95937C21.9553 3.2195 21.23 3.34956 20.5375 3.38214ZM26.6364 6.01623H23.8013C23.7683 4.87799 23.5046 3.83748 23.0761 2.79673C23.6693 2.5366 24.2297 2.17898 24.757 1.75621C25.9439 2.95937 26.5703 4.42288 26.6364 6.01623ZM24.3945 1.43094C23.9332 1.82113 23.4056 2.17898 22.8452 2.40654C22.3508 1.46351 21.7244 0.715469 20.9333 0C22.2189 0.130292 23.4056 0.617978 24.3945 1.43094ZM20.0759 3.38214V6.01623H17.2411C17.2741 4.97571 17.5048 3.93497 17.9662 2.95937C18.6256 3.2195 19.3509 3.34956 20.0759 3.38214ZM13.9445 6.01623H16.7795C16.8126 4.84565 17.0763 3.83748 17.5378 2.79673C16.9114 2.5366 16.351 2.17898 15.8234 1.75621C14.6698 2.89422 14.0103 4.39031 13.9445 6.01623ZM16.1861 1.43094C16.6477 1.82113 17.1751 2.17898 17.7355 2.40654C18.1971 1.46351 18.8893 0.682896 19.6476 0C18.3619 0.130292 17.1751 0.617978 16.1861 1.43094ZM0 8.32528H12.6588C13.1202 10.6341 14.7356 12.5529 17.9662 13.8862C17.6036 14.9921 16.351 16 15.0653 16H8.17538C7.12061 16 6.29628 15.1221 5.96678 14.4064H12.9556C13.3841 14.3415 13.3841 14.0162 12.9886 13.9511H6.09863C5.2085 13.9511 4.41742 13.2033 3.95584 12.3903H11.9336C12.3621 12.3254 12.3621 12.0001 11.9336 11.935H3.88981C3.06571 11.935 2.34044 10.9919 2.04373 10.374H10.8786C11.3071 10.309 11.3071 9.91885 10.8786 9.88628H1.87886C1.15383 9.88628 0.494365 9.13824 0 8.32528ZM40.5809 8.32528H27.9218C27.4602 10.6341 25.8451 12.5529 22.6145 13.8862C22.977 14.9921 24.2297 16 25.5156 16H32.4053C33.4603 16 34.2844 15.1221 34.6141 14.4064H27.6251C27.1968 14.3415 27.1968 14.0162 27.5923 13.9511H34.4823C35.3722 13.9511 36.1635 13.2033 36.6248 12.3903H28.6473C28.2188 12.3254 28.2188 12.0001 28.6473 11.935H36.6908C37.5149 11.935 38.2402 10.9919 38.5369 10.374H29.7021C29.2735 10.309 29.2735 9.91885 29.7021 9.88628H38.7018C39.4271 9.88628 40.0863 9.13824 40.5809 8.32528ZM82.6525 16L90.5376 0.0633239H95.7304L99 16H94.0637L93.8714 14.1028H88.6786L87.845 16H82.6525ZM89.9608 10.8143H93.2944L92.4608 4.93289L89.9608 10.8143ZM72.3313 16L74.1903 4.04749H69.5745L70.3437 0H84.4475L83.6781 4.04749H79.3189L77.5239 16H72.3313ZM51.1757 16L59.125 0.0633239H64.3178L67.523 16H62.7151L62.3944 14.1028H57.266L56.4324 16H51.1757ZM58.548 10.8143H61.8818L60.9842 4.93289L58.548 10.8143ZM42.7135 16L45.9189 0.0633239H51.1757L47.9703 16H42.7135Z" fill="black"/>
</svg>
