<svg width="108" height="48" viewBox="0 0 108 48" fill="none" xmlns="http://www.w3.org/2000/svg">
<path fill-rule="evenodd" clip-rule="evenodd" d="M7.17428 47.8419L1.26787 39.1895V47.8419H0V37.2245H1.55718L7.46359 45.9244V37.2245H8.73146V47.8419H7.17428ZM10.5931 43.88C10.5931 41.6613 11.9894 39.7594 14.798 39.7594C17.6072 39.7594 19.0036 41.6613 19.0036 43.88C19.0036 46.0988 17.6072 48 14.798 48C11.9894 48 10.5931 46.0988 10.5931 43.88ZM11.8451 43.88C11.8451 45.5757 12.8402 47.0019 14.798 47.0019C16.7565 47.0019 17.7515 45.5757 17.7515 43.88C17.7515 42.2319 16.7565 40.7582 14.798 40.7582C12.8402 40.7582 11.8451 42.2319 11.8451 43.88ZM22.0692 40.9957C22.085 40.9957 22.085 41.012 22.1008 41.012C23.192 40.2982 24.2359 39.7594 25.5842 39.7594V40.9007C24.653 40.9007 23.2724 41.3125 22.0692 42.0419V47.8419H20.8645V39.9182H22.0692V40.9957ZM32.9351 46.2888V41.2813C32.0685 40.9482 31.2817 40.8213 30.5436 40.8213C28.9219 40.8213 27.5578 41.9151 27.5578 43.9275C27.5578 45.9719 28.9219 47.0019 30.5752 47.0019C31.3133 47.0019 32.0362 46.8119 32.9351 46.2888ZM34.1383 37.2245V47.8419H32.9351V47.2082L32.9021 47.1919C32.0685 47.7944 31.169 48 30.3182 48C27.6863 48 26.3222 46.1463 26.3222 43.9275C26.3222 41.5982 27.7667 39.7594 30.3828 39.7594C31.2336 39.7594 32.1001 39.9501 32.9021 40.2507L32.9351 40.2351V37.2245H34.1383ZM40.0447 47.905H38.4718L35.455 39.9182H36.8191L39.2586 46.7488L41.6658 39.9182H43.0299L45.4859 46.7488L47.8774 39.9182H49.2414L46.2728 47.905H44.6991L42.3242 41.7088L40.0447 47.905ZM50.5574 47.8419H51.7614V39.9182H50.5574V47.8419ZM55.1485 40.9801L55.1801 40.9957C56.3518 40.2826 57.4108 39.7594 58.759 39.7594C60.7973 39.7594 61.5999 40.8688 61.5999 42.6601V47.8419H60.3966V42.7551C60.3966 41.3763 59.7218 40.8213 58.3577 40.8213C57.4108 40.8213 56.3518 41.3125 55.1485 42.0257V47.8419H53.9439V39.9182H55.1485V40.9801ZM70.0743 46.2888V41.2813C69.2078 40.9482 68.421 40.8213 67.6829 40.8213C66.0618 40.8213 64.6978 41.9151 64.6978 43.9275C64.6978 45.9719 66.0618 47.0019 67.7152 47.0019C68.4533 47.0019 69.1762 46.8119 70.0743 46.2888ZM71.2783 37.2245V47.8419H70.0743V47.2082L70.042 47.1919C69.2078 47.7944 68.309 48 67.4582 48C64.8263 48 63.4622 46.1463 63.4622 43.9275C63.4622 41.5982 64.9067 39.7594 67.5221 39.7594C68.3735 39.7594 69.2401 39.9501 70.042 40.2507L70.0743 40.2351V37.2245H71.2783ZM50.5602 38.7505H51.7641V37.2245H50.5602V38.7505ZM89.9679 42.791H90.8269V41.9429H89.9679V42.791ZM81.6309 42.791H82.4898V41.9429H81.6309V42.791ZM78.4711 41.9429L80.7286 47.8419H79.737L79.1886 46.3302H76.7016L76.1436 47.8419H75.1527L77.4184 41.9429H78.4711ZM77.9578 42.9566L76.9758 45.5872H78.9316L77.9578 42.9566ZM81.6309 47.8419H82.4898V43.4729H81.6309V47.8419ZM84.7906 44.0578C84.7995 44.0578 84.7995 44.0666 84.8084 44.0666C85.3657 43.6996 85.9059 43.3854 86.6494 43.3854V44.1806C86.1443 44.1806 85.3747 44.4249 84.7906 44.7743V47.8419H83.9405V43.4729H84.7906V44.0578ZM87.6582 47.8419H88.5172V41.9429H87.6582V47.8419ZM89.9679 47.8419H90.8269V43.4729H89.9679V47.8419ZM93.1365 44.0578L93.1544 44.0666C93.7296 43.6907 94.2869 43.3854 95.0304 43.3854C96.1547 43.3854 96.6061 43.9968 96.6061 45.0281V47.8419H95.7472V45.098C95.7472 44.3903 95.3932 44.1277 94.7562 44.1277C94.234 44.1277 93.6849 44.4161 93.1365 44.7743V47.8419H92.2775V43.4729H93.1365V44.0578ZM100.355 47.2387C100.904 47.2387 101.416 47.143 102.045 46.8981L102.195 47.5624C101.762 47.7632 101.01 47.9294 100.231 47.9294C98.5667 47.9294 97.7881 46.8804 97.7881 45.6571C97.7881 44.1101 98.8945 43.3854 100.204 43.3854C101.895 43.3854 102.576 44.2152 102.045 45.841H98.6904C98.7172 46.6009 99.3721 47.2387 100.355 47.2387ZM98.7433 45.1591H101.275C101.478 44.5382 101.177 44.0755 100.222 44.0755C99.5673 44.0755 98.8588 44.4161 98.7433 45.1591ZM105.054 47.9294C104.585 47.9294 103.842 47.8595 103.328 47.7021L103.408 47.0114C103.903 47.1607 104.505 47.2387 104.966 47.2387C105.647 47.2387 106.187 47.1342 106.196 46.6884C106.205 46.2867 105.78 46.1117 105.063 45.9719C103.691 45.7093 103.355 45.2025 103.355 44.661C103.355 43.7084 104.222 43.3854 105.24 43.3854C105.709 43.3854 106.435 43.4458 106.931 43.6032L106.842 44.2939C106.382 44.1542 105.789 44.0755 105.347 44.0755C104.683 44.0755 104.302 44.2064 104.302 44.5559C104.302 44.8449 104.435 45.0369 105.514 45.2547C106.922 45.5438 107.143 46.1463 107.143 46.5921C107.143 47.6234 106.267 47.9294 105.054 47.9294Z" fill="black"/>
<mask id="mask0" mask-type="alpha" maskUnits="userSpaceOnUse" x="0" y="0" width="108" height="31">
<path fill-rule="evenodd" clip-rule="evenodd" d="M0.00012207 0.181519H107.085V30.2111H0.00012207V0.181519Z" fill="white"/>
</mask>
<g mask="url(#mask0)">
<path fill-rule="evenodd" clip-rule="evenodd" d="M51.9074 30.2111L36.0194 1.91504L20.132 30.2111H0.00012207L11.2412 10.1912C14.3449 4.66293 21.2199 0.181274 26.5963 0.181274H55.1773L71.0654 28.4773L86.9534 0.181274H107.085L95.8435 20.2011C92.7398 25.7294 85.8648 30.2111 80.4884 30.2111H51.9074Z" fill="#CD202C"/>
</g>
</svg>
